<?xml version="1.0" standalone="no"?>
<!DOCTYPE svg PUBLIC "-//W3C//DTD SVG 20010904//EN"
 "http://www.w3.org/TR/2001/REC-SVG-20010904/DTD/svg10.dtd">
<svg version="1.0" xmlns="http://www.w3.org/2000/svg"
 width="202.000000pt" height="202.000000pt" viewBox="0 0 202.000000 202.000000"
 preserveAspectRatio="xMidYMid meet">

<g transform="translate(0.000000,202.000000) scale(0.100000,-0.100000)"
fill="#000000" stroke="none">
<path d="M0 1010 l0 -1010 1010 0 1010 0 0 1010 0 1010 -1010 0 -1010 0 0
-1010z m580 830 c109 -12 192 -52 254 -121 82 -91 115 -236 82 -355 -17 -59
-76 -157 -104 -173 -12 -7 -7 -15 25 -44 21 -20 52 -62 69 -94 26 -52 29 -68
29 -153 0 -88 -3 -101 -33 -162 -67 -136 -171 -196 -354 -205 l-107 -6 -3
-189 -3 -190 -33 -29 c-38 -34 -93 -39 -131 -13 -52 37 -51 23 -51 874 0 844
-1 831 47 859 23 13 203 14 313 1z m870 -20 c180 -24 316 -154 339 -325 10
-76 -4 -175 -34 -238 -28 -60 -113 -147 -169 -174 -20 -9 -36 -19 -36 -23 0
-15 121 -355 184 -517 46 -117 46 -145 2 -189 -26 -26 -42 -34 -71 -34 -47 0
-69 12 -93 52 -22 36 -93 223 -179 474 l-56 164 -49 0 -48 0 0 -314 0 -313
-24 -26 c-48 -51 -126 -44 -170 16 -21 28 -21 37 -24 700 -3 705 -2 712 42
742 24 18 264 20 386 5z"/>
<path d="M442 1458 l3 -153 75 3 c96 3 138 24 168 82 27 54 27 82 2 138 -26
58 -78 81 -178 82 l-73 0 3 -152z"/>
<path d="M440 921 l0 -158 41 -6 c48 -6 131 5 172 24 82 37 94 186 21 250 -37
32 -69 42 -151 45 l-83 3 0 -158z"/>
<path d="M1258 1595 c-5 -5 -8 -84 -8 -177 l0 -168 70 0 c154 0 250 72 250
187 0 51 -37 112 -81 135 -38 20 -218 37 -231 23z"/>
</g>
</svg>
